<svg fill="#279989" xmlns="http://www.w3.org/2000/svg" width="252.234" height="169.822" viewBox="0 0 252.234 169.822">
  <g>
    <path fill="#f1b434" d="M175.697 55.54a7.171 7.171 0 01-7.676-1.882s18.18-16.692 15.756-28.84c0 0-18.436-34.605-57.632-22.091-38.994 12.459-30.978 54.171-30.978 54.171s8.438-7.024 8.557-1.607v.5a13.258 13.258 0 0010.935-9.512 15.434 15.434 0 01-9.475 4.251c8.484-7.529 14.626-24.928 15.737-31.667 1.12 6.739 7.253 24.138 15.746 31.667a15.452 15.452 0 01-9.494-4.233 13.322 13.322 0 0012.276 9.734 9.739 9.739 0 01-10.485 0 14.993 14.993 0 006.078 8.4c2.644-5.022 8.667-11.339 17.693-4.747 7.29 5.316 12.2 6.932 14.883 6.932 0 0 1.836-.5-3.232-5.509-4.109-4.153 6.61-1.555 11.311-5.567z" data-name="Tracé 42" />
    <path fill="#02534c" d="M221.274 112.961c-4.765.569-7.143-4.719-7.143-4.719a4.416 4.416 0 004.756 0 6.041 6.041 0 01-5.564-4.389 7.024 7.024 0 004.306 1.919c-3.856-3.416-6.638-11.312-7.143-14.369-.514 3.057-3.3 10.954-7.143 14.369a7.024 7.024 0 004.306-1.919 6.06 6.06 0 01-5.573 4.389 4.416 4.416 0 004.756 0s-2.378 5.289-7.143 4.719a7.575 7.575 0 007.556.707 7.878 7.878 0 01-5.068 2.139 65.188 65.188 0 007.722.845v2.58h1.836v-2.6a67.322 67.322 0 007.051-.817 7.841 7.841 0 01-5.059-2.139 7.556 7.556 0 007.547-.716z" data-name="Tracé 43" />
    <path fill="#02534c" d="M170.041 112.134a17.482 17.482 0 0014.314-1.056c-9.035.845-13.552-7.033-13.552-7.033a10.3 10.3 0 009.035 0c-8.842-.56-10.568-6.546-10.568-6.546a15.416 15.416 0 008.172 2.865c-7.345-5.087-12.6-16.857-13.552-21.42-.964 4.591-6.253 16.334-13.561 21.42a15.416 15.416 0 008.172-2.865s-1.726 5.986-10.568 6.546a10.3 10.3 0 009.035 0s-4.554 7.878-13.552 7.079a17.508 17.508 0 0014.323 1.056 16.784 16.784 0 01-9.613 3.186s8.392 1.157 14.837 1.258v4.3h3v-4.331c6.253-.211 13.69-1.23 13.69-1.23a16.747 16.747 0 01-9.613-3.232z" data-name="Tracé 44" />
    <path fill="#02534c" d="M230.336 76.74c-14.69 1.744-22.036-14.525-22.036-14.525 8.263 4.765 14.69 0 14.69 0-14.332-1.157-17.142-13.524-17.142-13.524a21.586 21.586 0 0013.259 5.917c-11.853-10.517-20.438-34.83-22.036-44.25-1.561 9.42-10.1 33.733-22.036 44.246a21.6 21.6 0 0013.341-5.913s-2.81 12.358-17.16 13.515c0 0 6.427 4.765 14.69 0 0 0-7.345 16.27-21.99 14.525 0 0 10.917 8.318 23.238 2.185 0 0-6.859 6.794-15.609 6.574a195.038 195.038 0 0023.789 2.6v7.951h5.653v-8.017a205.564 205.564 0 0021.733-2.525c-8.741.22-15.609-6.574-15.609-6.574 12.326 6.134 23.225-2.185 23.225-2.185z" data-name="Tracé 45" />
    <path d="M40.518 65.217c0 .56-.285.771-.56.771a7.4 7.4 0 00-2.672-.422c-4.995 0-13.295 2.681-20.686 4.15C9.071 83.323 5.509 90.356 5.509 94.791a1.028 1.028 0 001.12 1.12c7.51 0 19.189-8.658 27.342-8.658 4.361 0 6.831 2.956 6.831 4.857 0 .7-.569 1.056-1.763 1.056-14.635 0-24.478 6.748-29.757 6.748S0 96.122 0 90.99c0-3.866 2.81-10.412 8.263-20.264-3.59-.147-5.344-2.754-5.344-3.8 0-.707.634-.918 2.6-.982a35.745 35.745 0 005.95-.725c.918-1.542 1.836-3.168 2.883-4.857 7.345-12.239 16.178-24.331 18.5-24.331 1.836 0 2.754 2.038 2.754 3.673S29.261 47.093 20.2 63.381l-.147.211c5.417-1.056 10.623-2.176 13.157-2.176 5.058-.037 7.308 2.213 7.308 3.801zm21-27.48c0 .918-.56 1.625-1.194 1.625-.771 0-3.03-4.012-18.638-4.012-30.953 0-35.81 16.315-36.586 16.315-1.414 0-2.819-2.461-2.819-5.132 0-4.5 6.188-16.389 34.825-16.389 15.935 0 24.41 5.206 24.41 7.593z" data-name="Tracé 46" />
    <path d="M56.273 68.201c0 1.4-5.206 2.883-5.206 10.1 0 3.673 3.03 6.188 3.03 10.1 0 6.546-9.641 11.257-13.717 11.257-1.552 0-2.323-.634-2.323-1.194 0-.285.138-.422.634-.5 2.249-.349 9.007-2.314 9.007-13.148 0-3.939-.992-6.684-.992-9.852 0-5.279 4.93-8.934 6.969-8.934 1.478.105 2.598 1.023 2.598 2.171z" data-name="Tracé 47" />
    <path d="M65.344 87.547c4.086 0 9.852-9.989 9.852-15.9 0-1.12-.349-1.542-.918-1.542-1.974 0-9.925 8.722-11.936 17.72-3.232 14.562-5.839 28.848-17.445 28.848-1.056 0-1.478-.422-1.478-.78s.56-.634 1.267-1.194c4.71-3.728 9.7-16.178 12.524-27.085 4.71-18.29 9-24.542 10.834-24.542a1.386 1.386 0 011.12 1.4c0 .7-4.15 6.9-5.059 13.717 1.754-3.452 7.1-10.834 10.761-10.834 2.81 0 4.921 3.168 4.921 7.345 0 7.667-5.206 15.407-10.761 15.407-2.883 0-4.288-1.4-4.288-2.112-.018-.237.191-.448.606-.448z" data-name="Tracé 48" />
    <path d="M101.299 88.033c-3.168 0-4.93-3.581-4.93-5.206-1.056 0-5.509 9.429-9.7 9.429-2.185 0-5.344-1.478-5.344-6.684 0-7.878 9.631-17.931 19.134-17.931 2.038 0 3.792 2.038 3.792 3.021s-1.689.349-4.637 1.616c-6.969 2.956-12.854 13.295-12.854 15.9 0 .422.211.634.487.634 1.689 0 9.181-9.714 11.183-12.45.918-1.34 1.689-2.323 2.47-2.323a3.168 3.168 0 012.81 3.021c0 3.03-3.517 5.913-3.517 7.244 0 .5.211.707.5.707 1.836 0 6.326-5.977 8.576-9.007.285-.349.422-.56.634-.56a1.414 1.414 0 011.194 1.267 2.755 2.755 0 01-.56 1.4c-1.011 1.484-6.502 9.922-9.238 9.922z" data-name="Tracé 49" />
    <path d="M107.13 82.827c0-8.86 10.1-16.178 14.635-16.178 1.974 0 3.939 2.047 3.939 4.93 0 3.158-2.112 4.71-2.754 4.71a1.717 1.717 0 01-1.542-1.478c0-.771 1.689-2.387 1.689-4.361-2.185 0-10.412 9.852-10.559 15.967 0 1.552.78 2.461 1.974 2.461 4.5 0 11.256-9.356 13.772-12.854.275-.349.422-.56.634-.56a1.423 1.423 0 011.194 1.267 2.754 2.754 0 01-.569 1.4c-2.387 3.517-9.182 13.295-14.2 13.295a8.174 8.174 0 01-8.213-8.599z" data-name="Tracé 50" />
    <path d="M135.059 90.925c-4.361 0-8.511-2.681-8.511-8.263 0-8.86 8.585-15.682 13.579-15.682 1.754 0 4.15 2.461 4.15 4.591-.073 4.591-5.206 9.7-8.934 9.7a6.5 6.5 0 01-2.249-.771 12.028 12.028 0 00-.918 4.848c0 2.112.771 2.819 1.689 2.819 4.784 0 11.018-7.345 14.488-12.175.285-.349.422-.56.634-.56a1.414 1.414 0 011.194 1.267 2.754 2.754 0 01-.56 1.4c-2.603 3.819-9.916 12.826-14.562 12.826zm-1.01-12.67c1.836 0 7.529-5.509 7.667-7.345 0-.285-.138-.5-.349-.5-.817-.033-3.849 1.657-7.318 7.845z" data-name="Tracé 51" />
    <path d="M29.225 169.821c-3.158 0-5.766-2.249-5.766-3.443 0-.634.422-.78 1.763-1.267 16.316-5.977 35.946-38.829 45.09-56.007 2.525-4.784 3.581-6.748 4.784-6.748 1.754 0 5.509 4 5.509 7.345 0 7.8-8.576 30.593-8.576 41.078 5.509-11.752 28.554-52.757 33.411-52.757 1.689 0 3.158 1.836 3.158 4.288 0 6.473-13.708 28.564-13.708 52.619 0 8.015 3.517 8.511 3.517 9.181s-.5 1.047-1.34 1.047c-4.012 0-9.852-4.995-9.852-13.717 0-16.178 11.752-32.842 14.846-45.228-6.124 7.18-22.954 37.5-28.628 47.973-1.34 2.534-1.974 4.15-3.03 4.15-1.9 0-5.417-2.038-5.417-8.263 0-13.993 8.934-34.963 8.934-40.94-10.292 18.629-28.93 60.689-44.695 60.689z" data-name="Tracé 52" />
    <path d="M127.624 157.794c-3.232 0-5.913-2.185-5.913-5.417s6.2-10.687 6.2-12.312c0-.56-2.47-2.883-2.819-2.883s-2.956 3.168-5.839 4.508a3.884 3.884 0 01.992 2.6c0 5.509-7.529 13.368-11.468 13.368a7.106 7.106 0 01-6.969-7.106c0-8.934 8.8-16.674 12.6-16.674 1.4 0 3.517 1.9 3.517 2.754s-.78.771-1.974 1.542c-2.249 1.478-8.8 8.025-8.8 14.69 0 1.478.5 2.249 1.2 2.249 2.249 0 7.74-7.951 7.74-13.433 0-1.478 1.258-1.974 2.525-2.608s4.3-3.8 4.3-5.509-.422-2.176-.422-3.865 1.4-4.288 2.525-4.288 3.03 1.616 3.03 4.214-1.267 3.673-1.267 4.857c0 2.608 5.132 4.995 5.132 8.263s-5.132 8.8-5.132 11.605c0 .569.138.845.422.845 1.836 0 7.878-9.007 10.412-12.377.285-.358.422-.569.634-.569a1.423 1.423 0 011.194 1.267 2.855 2.855 0 01-.56 1.414c-1.603 2.922-8.011 12.865-11.26 12.865z" data-name="Tracé 53" />
    <path d="M143.048 132.333c2.323-4.508 4.223-8.722 4.591-12.1.073-.634.285-.918.707-.918s2.461.771 2.461 4.71c-.073 2.323-1.056 5.206-2.461 8.52 5.2.064 7.033.7 7.033 1.68a2.011 2.011 0 01-1.689 1.689c-.56 0-3.8.073-6.9.073-3.59 7.74-8.263 16.738-8.263 24.478 0 3.379 1.12 4.012 1.12 4.591 0 .285-.349.634-.918.634-1.689 0-5.986-3.021-5.986-8.8s4.646-13.993 8.722-21.659a5 5 0 01-2.038-2.883c0-.5.211-.707.56-.707a25.131 25.131 0 003.057.689z" data-name="Tracé 54" />
    <path d="M158.243 157.793c-4.361 0-8.511-2.672-8.511-8.263 0-8.869 8.576-15.691 13.57-15.691 1.763 0 4.15 2.461 4.15 4.591-.064 4.591-5.206 9.7-8.934 9.7a6.5 6.5 0 01-2.249-.771 12.2 12.2 0 00-.918 4.857c0 2.112.771 2.81 1.68 2.81 4.784 0 11.018-7.345 14.5-12.165.275-.358.422-.569.634-.569a1.423 1.423 0 011.194 1.267 2.855 2.855 0 01-.56 1.414c-2.601 3.795-9.919 12.82-14.556 12.82zm-1.056-12.694c1.836 0 7.529-5.509 7.667-7.345 0-.275-.138-.487-.349-.487-.78-.012-3.829 1.677-7.318 7.832z" data-name="Tracé 55" />
    <path d="M187.504 154.911c-3.168 0-4.921-3.59-4.921-5.206-1.056 0-5.564 9.429-9.714 9.429-2.176 0-5.344-1.478-5.344-6.684 0-7.878 9.641-17.941 19.134-17.941 2.038 0 3.8 2.038 3.8 3.021s-1.689.358-4.646 1.625c-6.969 2.947-12.854 13.295-12.854 15.893 0 .422.211.634.5.634 1.68 0 9.181-9.7 11.183-12.45.918-1.34 1.689-2.323 2.461-2.323a3.168 3.168 0 012.81 3.03c0 3.021-3.516 5.9-3.516 7.244 0 .487.211.7.5.7 1.836 0 6.326-5.977 8.585-9 .275-.358.422-.569.634-.569a1.432 1.432 0 011.194 1.267 2.754 2.754 0 01-.569 1.414c-1.01 1.469-6.492 9.916-9.237 9.916z" data-name="Tracé 56" />
    <path d="M240.555 142.81c7.8 0 11.679 6.969 11.679 12.1 0 .918-.22 1.478-.845 1.478-1.129 0-1.763-7.813-10.559-7.813s-20.328 8.585-27.012 8.585c-3.792 0-6.427-2.883-6.427-7.106a18.363 18.363 0 01.138-2.387c-.358.7-4.921 10.972-10.1 10.972a5.748 5.748 0 01-5.775-5.509c.073-6.96 6.9-13.772 9.182-20.466a.973.973 0 01.845-.707c1.4 0 3.168 1.974 3.168 4.508 0 3.021-6.188 12.239-6.188 17.371 0 .634.349.982.845.982 1.12 0 3.37-3.021 7.345-9.916 3.452-6.051 4.012-9.7 5.986-9.7s3.305 2.314 3.305 3.517c0 2.883-3.241 7.244-3.241 13.57 0 1.34.707 2.4 2.047 2.4 3.222.011 14.901-11.879 25.607-11.879z" data-name="Tracé 57" />
  </g>
</svg>